<svg id="&#x56FE;&#x5C42;_2" enable-background="new 0 0 250.194 225.072" height="225.072" viewBox="0 0 250.194 225.072" width="250.194" xmlns="http://www.w3.org/2000/svg"><path d="m87.444 86.944s-19.29-14.971-6.467-45.037c13.313-31.216-10.657-43.506-28.296-38.466-22.167 6.333-13.794 28.63-12.224 32.036 3.289 7.134 15.749 10.287 17.648 4.844 2.653-7.596-5.874.824-7.972-6.175-2.248-7.495.427-13.227 10.948-13.46 4.095-.09 9.67 5.622 4.332 27.414-6.315 25.778-19.795 62.501 13.518 77.817.001-.002 10.559-3.662 8.513-38.973z" fill="#ff7fb6"/><g><g><path d="m72.288 62.261c11-37.667 3.333-46-2.333-51.667s-27-4-27 16.333c0 11.9 4.41 15.232 8.068 15.954.449.079.89.133 1.321.163 1.981.095 3.488-.45 3.488-.45 1.077-.437 1.891-1.178 2.273-2.273 2.653-7.596-5.874.824-7.972-6.175-2.248-7.495.427-13.227 10.948-13.46 4.095-.09 9.67 5.622 4.332 27.414-6.315 25.778-19.795 62.501 13.518 77.817 0 0 6.942-2.41 8.477-22.149-9.511-3.342-23.31-13.46-15.12-41.507z" fill="#f272a8"/></g></g><path d="m67.04 58.93c4.019-14.569 8.989-25.847 7.383-33.364-2.112-9.885-10.679-13.269-20.626-9.082-14.182 5.97-7.671 27.85 4.529 20.71.253-.148 0 1.226.254 1.297.527-4.225-6.559 1.951-8.446-4.346-2.248-7.495.427-13.227 10.948-13.46 4.095-.09 9.671 5.622 4.332 27.414-1.803 7.359-4.186 15.611-5.901 24.001-1.034 9.906-1.892 20.524-1.063 29.657 2.247 9.89 8.156 18.491 20.482 24.158 0 0 1.389-.491 3.061-2.786.404-1.702.668-4.221.668-7.929-.001 0-27.177-14.385-15.621-56.27z" fill="#780074" opacity=".45"/><path d="m61.085 178.823c-36.698 3.096-31.966-49.94-21.227-74.573 8.194-18.791-10.058-12.932-10.058-12.932-25.092 11.384-4.974 33.933-4.974 47.42 0 5.939-7.075 1.768-7.075 1.768-25.202-15.033-28.961-78.259 24.759-78.259 40.391 0 32.166 38.134 15.034 55.268-9.528 9.528 13.814 19.853 21.387 6.279 4.172-7.478 9.101-21.993 6.468-42.535-7.063-55.083 34.033-72.253 40.677-75.606-6.11 3.942 47.102-25.881 78.26 21.665 38.152 58.222-32.626 74.54-26.566 99.391 16.839 69.065-81.316 46.96-111.824 43.863" fill="#f272a8"/><path d="m47.153 147.801c-6.938-15.009-7.228-29.3 5.979-45.829 13.171-16.485-6.785-26.105-16.927-23.818-38.087 8.585-29.344 41.219-21.257 52.775 6.526 9.324 8.605 10.373 9.268 10.105.375-.497.61-1.229.61-2.296 0-13.487-20.118-36.036 4.974-47.42 0 0 18.252-5.859 10.059 12.932-10.74 24.633-15.471 77.669 21.227 74.573l4.86-1.619c4.126.418 6.893-5.446 13.127-4.605 4.006-12.654 9.021-16.339 9.021-16.339s-32.554 9.683-40.941-8.459z" fill="#780074" opacity=".45"/><path d="m182.229 172.34c37.14-4.421 64.401 14.049 37.14 19.012 0 0-9.065 6.854 6.853 6.854 22.329 0 60.354-49.299-58.583-54.604" fill="#ff7fb6"/><path d="m196.598 160.304s-14.28-3.998-25.225-1.468l10.856 13.504c37.14-4.421 64.401 14.049 37.14 19.012 10.392 0 27.37-5.126 15.474-17.022s-38.245-14.026-38.245-14.026z" fill="#780074" opacity=".45"/><path d="m164.322 138.958c0 13.458 21.002 33.382 21.002 33.382 39.351 39.352-15.13 57.334-28.74 51.73-7.517-3.094 0-6.19 0-6.19 32.001-4.492 21.654-27.56-5.306-33.602-25.644-5.748-20.338-30.95-20.338-30.95s-.884-13.264 14.148-19.455c15.033-6.19 19.234-.326 19.234 5.085z" fill="#ff7fb6"/><path d="m166.644 147.882c-9.191-2.507-14.422-.135-7.801 9.301 0 0-1.606 6.604 21.348 22.016 14.851 10.385 25.094 40.009-18.268 45.85h.002c18.468.706 58.713-17.395 23.399-52.708 0-.001-13.221-12.552-18.68-24.459z" fill="#780074" opacity=".45"/><ellipse cx="173.497" cy="25.77" fill="#c71870" opacity=".23" rx="14.259" ry="10.28"/><ellipse cx="131.713" cy="25.77" fill="#c71870" opacity=".16" rx="7.462" ry="5.379" transform="matrix(.965 -.262 .262 .965 -2.156 35.339)"/><ellipse cx="198.688" cy="46.992" fill="#c71870" opacity=".26" rx="10.119" ry="7.295"/><ellipse cx="160.947" cy="52.766" fill="#c71870" opacity=".2" rx="3.971" ry="2.863" transform="matrix(.965 -.261 .261 .965 -8.197 43.908)"/><path d="m201.473 59.312c0 30.035-26.969 36.978-49.981 54.384-20.384 15.417 3.124 41.477-26.99 55.47-3.455 1.605-40.38 2.104-50.249-13.993-4.181-6.82 19.916-3.22 19.916-42.912 0-20.605-4.184-40.083-1.518-52.948 6.056-29.229 31.238-54.384 58.841-54.384 27.604-.001 49.981 24.347 49.981 54.383z" fill="#ff7fb6"/><g><ellipse cx="119.114" cy="73.383" fill="#8f0000" opacity=".16" rx="18.4" ry="20.941" transform="matrix(.892 .453 -.453 .892 46.146 -45.986)"/><ellipse cx="118.674" cy="69.869" fill="#fff" rx="18.997" ry="19.766" stroke="#b2b2b2" transform="matrix(.892 .453 -.453 .892 44.509 -46.169)"/><path d="m127.624 52.246c-9.352-4.75-20.944-.713-25.887 9.02-4.943 9.732-1.368 21.475 7.985 26.226 9.354 4.751 20.946.713 25.889-9.02 4.943-9.732 1.368-21.474-7.987-26.226zm-16.985 28.224c-7.359-3.738-10.171-12.976-6.283-20.631 3.89-7.656 13.009-10.833 20.367-7.096 7.357 3.737 10.171 12.976 6.281 20.632-3.888 7.655-13.006 10.833-20.365 7.095z" fill="#f7f7f7"/></g><g><ellipse cx="154.644" cy="80.431" fill="#8f0000" opacity=".16" rx="20.946" ry="23.838" transform="matrix(.892 .453 -.453 .892 53.189 -61.311)"/><ellipse cx="154.144" cy="76.43" fill="#fff" rx="21.625" ry="22.501" stroke="#b2b2b2" transform="matrix(.892 .453 -.453 .892 51.325 -61.52)"/><path d="m164.332 56.37c-10.646-5.408-23.842-.812-29.469 10.267s-1.557 24.446 9.09 29.854c10.648 5.408 23.844.812 29.471-10.268 5.627-11.077 1.556-24.444-9.092-29.853zm-19.336 32.128c-8.377-4.255-11.578-14.771-7.152-23.485 4.428-8.716 14.809-12.333 23.186-8.078 8.375 4.254 11.578 14.771 7.15 23.486-4.426 8.715-14.807 12.332-23.184 8.077z" fill="#f7f7f7"/></g><circle cx="149.961" cy="72.353" r="7.34"/><circle cx="111.727" cy="67.839" r="6.251"/><circle cx="146.971" cy="69.898" fill="#fff" r="2.461"/><circle cx="110.023" cy="66.136" fill="#fff" r="1.704"/><path d="m172.584 217.88c10.704-4.492 21.654-27.56-5.306-33.602-25.644-5.748-20.338-30.95-20.338-30.95s-.884-13.264 14.148-19.455c.401-.165.79-.317 1.176-.466-2.528-2.546-7.697-3.438-17.176.466-15.032 6.191-14.148 19.455-14.148 19.455s-5.306 25.202 20.338 30.95c26.96 6.042 37.307 29.109 5.306 33.602 0 0-7.517 3.097 0 6.19 3.381 1.392 9.282 1.327 15.642-.157-6.895-3.04.358-6.033.358-6.033z" fill="#f272a8"/><path d="m208.366 148.068c-5.94 5.675-8.079 11.102-2.68 12.876 0 0 31.264-4.175 35.602 11.316s-13.171 19.091-21.919 19.091c0 0-9.065 6.854 6.853 6.854 19.247 0 50.15-36.628-17.856-50.137z" fill="#f272a8"/><path d="m138.898 147.579s68.09 42.004 87.545-9.285c0 0 6.189-13.705-4.422-35.37-10.61-21.665 8.843-32.719 15.475-21.665 6.633 11.054 6.854-16.138-11.938-21.223-18.791-5.085-24.762 25.645-18.791 46.868s-31.169 25.201-41.339.883c-10.171-24.317-38.908-11.054-42.225 3.759-3.316 14.812.66 27.188 15.695 36.033z" fill="#ff7fb6"/><path d="m240.32 74.248c-2.318-4.358-5.746-7.32-10.782-7.32-32.083 0-17.917 40.593-17.917 45 0 55.5-54.5 20-63 1-8.241-18.422-21.768-8.129-22.583-7.486-1.368 1.936-2.364 4.001-2.834 6.103-3.316 14.813.66 27.189 15.695 36.034 0 0 68.09 42.004 87.545-9.285 0 0 6.189-13.705-4.422-35.37-10.61-21.665 8.843-32.719 15.475-21.665 3.747 6.246 5.445.278 2.823-7.011z" fill="#f272a8"/><path d="m41.567 93.789c2.971-12.695-11.767-7.971-11.767-7.971-11.036 5.007-13.325 12.174-12.428 19.779.758-5.496 4.103-10.502 12.428-14.279 0 0 9.669-3.097 11.767 2.471zm41.515 63.658c-1.306 2.397-2.71 5.546-4.01 9.651-6.234-.841-9.001 5.023-13.127 4.605l-4.86 1.619c-20.791 1.754-28.281-14.509-28.918-33.415-.678 21.121 6.133 40.837 28.918 38.915l4.86-1.619c4.126.418 6.893-5.446 13.127-4.605 4.006-12.654 9.021-16.339 9.021-16.339s-1.952.579-5.011 1.188z" fill="#780074" opacity=".28"/><path d="m226.443 138.294s6.189-13.705-4.422-35.37c-10.61-21.665 8.843-32.719 15.475-21.665 1.188 1.982 2.167 2.719 2.871 2.589-2.312-10.351-10.829-11.654-10.829-11.654-22.55 0-16.581 25.203-12.602 36.478 3.979 11.274 2.652 17.906 2.652 17.906-9.899 41.017-64.676 23.875-78.922-2.606-8.278-15.39-14.396-12.8-17.034-7.503-1.583 3.178-1.272 7.97-1.216 8.646 1.215 8.878 6.311 16.481 16.481 22.464.001 0 68.091 42.004 87.546-9.285z" fill="#780074" opacity=".45"/><path d="m20.975 138.738s-36.98-36.477 0-61.144 57.457 9.495 38.885 37.416c0 0 0 .001-.001.001 15.475-18.074 21.177-52.764-17.348-52.764-53.72 0-49.961 63.226-24.759 78.259 0 0 1.914 1.126 3.75 1.374-.71-1.963-.972-3.142-.527-3.142z" fill="#ff7fb6"/><path d="m102.707 146.315s-12.622-3.264-27.087 4.949c-25.594 14.531-18.493 49.747 10.678 60.165 23.118 8.255 54.417-14.318 43.854-40.832-2.766-6.943-8.403-18.031-17.808-21.156 0 0-14.586-7.292-26.046 4.168 0 0-5.209 5.729 9.376 5.729s20.316 25.525 8.856 30.213c-11.46 4.689-17.712-18.231 5.729-18.231" fill="#ff7fb6"/><path d="m103.238 145.878c5.273.327 9.106 2.563 9.106 2.563 9.405 6.348 15.042 15.213 17.808 22.156 10.563 26.514-20.736 49.087-43.854 40.832-19.279-6.884-29.082-23.325-25.999-38.723 0 .015-2.02 10.923 5.189 19.348 7.215 8.432 24.669 14.377 41.125 8.436 35.936-12.976.767-64.309-20.45-43.091 0 0-1.408-11.521 17.075-11.521z" fill="#780074" opacity=".45"/><g fill="#f272a8"><path d="m87.621 160.934s-16 10-9.5 24c6.351 13.678 33.84 14.684 32.462-7.534.241 5.383-1.607 10.339-6.053 12.157-10.388 4.25-16.496-14.184-.091-17.671-5.203-13.383-16.818-10.952-16.818-10.952zm22.833 14.869-.002-.002c.003.023.005.047.008.07-.003-.023-.003-.045-.006-.068z"/><circle cx="164.634" cy="25.579" r="7.527"/><circle cx="125.653" cy="30.687" r="2.957"/><circle cx="144.203" cy="41.709" r="3.226"/><circle cx="198.238" cy="43.053" r="12.097"/><circle cx="89.499" cy="129.079" r="10.485"/><circle cx="94.2" cy="105.153" r="5.377"/><ellipse cx="103.228" cy="37.966" rx="5.802" ry="8.044"/></g><g opacity=".28"><g><path d="m229.538 72.194c-22.55 0-16.581 25.203-12.602 36.478 3.353 9.501 2.939 15.687 2.726 17.403.221-.698.432-1.41.619-2.149 0 0 1.282-6.089-2.563-16.439-3.848-10.352-9.617-33.49 12.181-33.49 0 0 7.712 1.147 10.226 9.859.084.007.165.008.242-.006-2.311-10.352-10.829-11.656-10.829-11.656zm-87.256 71.013c-9.832-5.492-14.758-12.474-15.932-20.624-.055-.621-.354-5.021 1.175-7.938.455-.867 1.019-1.653 1.681-2.283-2.484-.112-4.384 1.719-5.573 4.107-1.583 3.178-1.272 7.97-1.216 8.646 1.215 8.878 6.311 16.481 16.481 22.464 0 0 68.09 42.004 87.545-9.285 0 0 1.236-2.75 1.655-7.721-.509 2.669-1.191 4.109-1.191 4.109-18.805 47.089-84.625 8.525-84.625 8.525z" fill="#780074"/></g></g><g opacity=".28"><g><path d="m60.299 172.707c-.082.408-.149.817-.213 1.227.008.13.017.264.027.396.076-1.018.186-1.619.186-1.623zm61.674 5.926c1.626-17.991-19.488-39.26-34.608-26.337-1.498 2.646-1.202 5.104-1.202 5.104 14.089-14.091 34.324 3.814 35.81 21.233zm10.212.57c-1.522 20.481-26.561 35.128-45.888 28.227-9.392-3.354-16.527-8.979-21.026-15.643-3.28-3.961-4.573-8.43-5.021-12.049-.208-1.117-.354-2.242-.433-3.371-.986 14.273 8.722 28.722 26.479 35.063 20.565 7.342 47.6-9.708 45.889-32.227z" fill="#780074"/></g></g><path d="m185.027 172.053c22.576-2.025 40.968 4.297 44.703 10.445 1.786-6.95-21.134-16.145-50.029-13.304l2.528 3.146s29.15 26.749 2.082 45.16c-.197.139-.402.275-.606.411-.036.024-.071.049-.107.072-.437.288-.886.573-1.357.85-.004.002-.007.005-.011.007-4.464 2.62-10.504 4.697-18.457 5.938.021.092.037.183.072.277 19.151-.529 55.614-18.58 21.479-52.715 0 0-.115-.111-.297-.287z" fill="#780074" opacity=".28"/></svg>